<svg xmlns="http://www.w3.org/2000/svg" width="219" height="56.72" viewBox="0 0 219 56.72">
    <defs>
        <style>
            .cls-1{fill:#fff}.cls-2{fill:#a91f23}
        </style>
    </defs>
    <g id="Redesign_Logo_white" transform="translate(-162.3 -234.84)">
        <g id="Group_207" transform="translate(162.3 258.763)">
            <path id="Path_1658" d="M190.976 438.57c0 .184-.1.275-.309.275h-.034q-1.1 0-2.232-.051t-2.267-.052q-1 0-2.078.052t-1.975.051h-.034c-.206 0-.309-.091-.309-.275s.115-.275.343-.275l2.2-.1c.252 0 .378-.149.378-.446v-12.058a2.66 2.66 0 0 0-.67-2.009 2.368 2.368 0 0 0-1.7-.635 3.672 3.672 0 0 0-1.786.429 3.862 3.862 0 0 0-1.322 1.185 5.583 5.583 0 0 0-.807 1.751 7.956 7.956 0 0 0-.275 2.129v9.238a.364.364 0 0 0 .412.412l2.164.1c.252 0 .378.091.378.275s-.1.275-.309.275h-.069q-1.1 0-2.009-.051t-2.043-.052q-1 0-2.078.052t-1.975.051h-.034c-.206 0-.309-.091-.309-.275s.115-.275.343-.275l2.164-.1c.275 0 .412-.149.412-.446v-12.054a2.778 2.778 0 0 0-.635-1.958 2.244 2.244 0 0 0-1.734-.687 3.735 3.735 0 0 0-2.971 1.46 6.114 6.114 0 0 0-1.219 4.035v9.238a.574.574 0 0 0 .069.292c.046.081.149.12.309.12l2.2.1c.228 0 .343.091.343.275s-.1.275-.309.275h-.034q-.894 0-1.958-.051t-2.061-.052q-1.133 0-2.3.052t-2.267.051h-.034c-.16 0-.24-.091-.24-.275a.242.242 0 0 1 .275-.275l2.679-.1a.364.364 0 0 0 .412-.412v-13.5a1.026 1.026 0 0 0-.206-.687.913.913 0 0 0-.721-.24h-2.095c-.228 0-.343-.091-.343-.275s.115-.275.343-.275q1.682 0 2.679-.017t1.563-.052c.378-.022.64-.039.79-.052s.28-.017.395-.017a.455.455 0 0 1 .515.515v2.438c0 .046.012.069.034.069s.046-.022.069-.069a4.767 4.767 0 0 1 1.648-2.37 4.186 4.186 0 0 1 2.61-.893 5.38 5.38 0 0 1 3.28.927 4.774 4.774 0 0 1 1.734 2.335c.046.115.091.115.137 0a4.613 4.613 0 0 1 1.717-2.37 4.429 4.429 0 0 1 2.644-.893 4.959 4.959 0 0 1 3.743 1.46 5.235 5.235 0 0 1 1.408 3.795v10.172a.364.364 0 0 0 .412.412l2.61.1c.224.003.339.096.339.278z" class="cls-1" transform="translate(-162.3 -414.084)"/>
            <path id="Path_1659" d="M352.926 434.586c0 .527-.022 1.07-.069 1.631a4.625 4.625 0 0 1-.378 1.528 2.762 2.762 0 0 1-.893 1.116 2.674 2.674 0 0 1-1.614.429 3.951 3.951 0 0 1-2.524-.773 3.072 3.072 0 0 1-1.048-2.417c0-.046-.012-.074-.034-.086s-.046.017-.069.086a4.322 4.322 0 0 1-1.683 2.37 4.917 4.917 0 0 1-2.85.824 7.316 7.316 0 0 1-1.666-.189 4.312 4.312 0 0 1-1.425-.6 3.181 3.181 0 0 1-1-1.065 3.1 3.1 0 0 1-.378-1.58 3.493 3.493 0 0 1 .378-1.648 5.166 5.166 0 0 1 .979-1.3 7.736 7.736 0 0 1 1.357-1.047q.755-.464 1.477-.841 1-.549 2.026-1t2.473-1.065a.743.743 0 0 0 .343-.275.849.849 0 0 0 .069-.378v-2.507a2.783 2.783 0 0 0-.738-2.267 4.223 4.223 0 0 0-2.559-.584 6.362 6.362 0 0 0-1.545.172 5.481 5.481 0 0 0-1.185.429 2.788 2.788 0 0 0-.755.532.77.77 0 0 0-.258.481.511.511 0 0 0 .343.446 5.242 5.242 0 0 1 .721.446 2.371 2.371 0 0 1 .6.618 2.282 2.282 0 0 1-.309 2.559 1.9 1.9 0 0 1-1.288.5 2.049 2.049 0 0 1-1.391-.567 2.159 2.159 0 0 1-.635-1.7 3.465 3.465 0 0 1 .446-1.7 4.437 4.437 0 0 1 1.288-1.425 6.95 6.95 0 0 1 2.043-1 8.9 8.9 0 0 1 2.679-.378 7.155 7.155 0 0 1 3.949.962 3.28 3.28 0 0 1 1.477 2.953v10.509a2.037 2.037 0 0 0 .343 1.185 1.278 1.278 0 0 0 1.133.5 1.033 1.033 0 0 0 .876-.446 2.794 2.794 0 0 0 .464-1.065 7.67 7.67 0 0 0 .172-1.253c.022-.424.034-.761.034-1.013q0-.894-.017-1.545c-.012-.434-.017-.7-.017-.79 0-.206.081-.309.24-.309s.252.1.275.309q.07.482.1 1.1t.043 1.128zm-6.525-5.357q-.688.343-1.356.67t-1.15.532a6.9 6.9 0 0 0-2.61 2.078 4.8 4.8 0 0 0-.841 3.949 2.989 2.989 0 0 0 .395.962 2.407 2.407 0 0 0 .721.721 1.905 1.905 0 0 0 1.065.292 3.964 3.964 0 0 0 1.511-.309 2.592 2.592 0 0 0 1.236-1.1 5.662 5.662 0 0 0 .807-2.043 12.1 12.1 0 0 0 .223-2.318z" class="cls-1" transform="translate(-307.251 -414.083)"/>
            <path id="Path_1660" d="M444.483 425.2c0 .16-.125.263-.378.309l-1.03.206a6.211 6.211 0 0 0-.893.223 1.566 1.566 0 0 0-.618.412 3.365 3.365 0 0 0-.532.807 13.139 13.139 0 0 0-.567 1.374l-4.842 13.084q-.482 1.27-1.03 2.679a23.086 23.086 0 0 1-.962 2.2 5.694 5.694 0 0 1-1.545 1.94 3.022 3.022 0 0 1-1.82.6 3.288 3.288 0 0 1-2.318-.807 2.7 2.7 0 0 1-.876-2.078 1.9 1.9 0 0 1 .549-1.528 1.865 1.865 0 0 1 1.236-.464 1.948 1.948 0 0 1 1.185.395 1.342 1.342 0 0 1 .532 1.15 1.7 1.7 0 0 1-.206.91 2.6 2.6 0 0 1-.429.532c-.149.137-.292.258-.429.361a.475.475 0 0 0-.206.395.491.491 0 0 0 .275.481 1.451 1.451 0 0 0 .652.137 2.505 2.505 0 0 0 1.666-.532 5.985 5.985 0 0 0 1.288-1.734c.115-.228.28-.6.5-1.116s.476-1.138.773-1.872q.206-.515.309-.859a2.49 2.49 0 0 0 .1-.721 3.284 3.284 0 0 0-.069-.652 6.1 6.1 0 0 0-.24-.824l-4.121-13.29c-.091-.275-.172-.493-.24-.652a1.007 1.007 0 0 0-.24-.361.8.8 0 0 0-.343-.172 3.925 3.925 0 0 0-.549-.086l-1.854-.137c-.206 0-.309-.091-.309-.275s.1-.275.309-.275q.688 0 1.8.052t2.627.052q1.476 0 2.644-.052c.778-.034 1.351-.052 1.717-.052.206 0 .309.091.309.275s-.1.275-.309.275l-2.232.137q-.515.034-.515.412a2.027 2.027 0 0 0 .1.549l3.194 10.818c.046.137.091.137.137 0l3.022-8.311a7.2 7.2 0 0 0 .515-2.164 1.043 1.043 0 0 0-.395-.944 3.037 3.037 0 0 0-1.253-.361l-1.3-.137c-.206-.022-.309-.115-.309-.275 0-.184.1-.275.309-.275.3 0 .733.017 1.3.052s1.374.052 2.4.052q1.442 0 2.146-.052c.469-.034.819-.052 1.047-.052.215.001.318.082.318.241z" class="cls-1" transform="translate(-381.465 -416.237)"/>
            <path id="Path_1661" d="M545.517 390.919a8.807 8.807 0 0 1-.549 3.022 9.275 9.275 0 0 1-1.528 2.713 7.925 7.925 0 0 1-2.352 1.957 6.1 6.1 0 0 1-2.988.756 4.31 4.31 0 0 1-3.022-1.133 5.977 5.977 0 0 1-1.717-2.988l-.069-.275c-.069-.252-.184-.378-.343-.378s-.275.115-.343.343q-.137.515-.309 1.1l-.343 1.168c-.115.39-.218.761-.309 1.116s-.172.658-.24.91a.336.336 0 0 1-.343.309.326.326 0 0 1-.206-.086.314.314 0 0 1-.1-.258q0-1.442.017-3.022t.017-3.022v-17.789c0-.321-.149-.481-.446-.481l-2.129-.069c-.206 0-.309-.091-.309-.275s.1-.275.309-.275q2.094 0 3.52-.052t1.906-.051a.091.091 0 0 1 .1.1v6.491q0 2.094-.069 3.314t-.1 2.215c0 .046.012.069.034.069s.046-.022.069-.069a5.817 5.817 0 0 1 1.7-2.747 4.321 4.321 0 0 1 3-1.1 5.548 5.548 0 0 1 2.9.79 8.126 8.126 0 0 1 2.267 2.009 9.36 9.36 0 0 1 1.46 2.73 9.126 9.126 0 0 1 .515 2.958zm-3.194 0a21.851 21.851 0 0 0-.275-3.812 7.029 7.029 0 0 0-.824-2.4 3.008 3.008 0 0 0-1.322-1.236 4.238 4.238 0 0 0-1.734-.343 3.977 3.977 0 0 0-3.4 1.872q-1.306 1.872-1.3 5.924a16.768 16.768 0 0 0 .326 3.572 7.352 7.352 0 0 0 .927 2.4 3.742 3.742 0 0 0 1.46 1.356 4.232 4.232 0 0 0 1.923.429 4.537 4.537 0 0 0 1.7-.309 2.935 2.935 0 0 0 1.339-1.168 6.8 6.8 0 0 0 .876-2.37 20.169 20.169 0 0 0 .305-3.915z" class="cls-1" transform="translate(-465.122 -374.16)"/>
            <path id="Path_1662" d="M658.752 432.828a6.933 6.933 0 0 1-.343 1.958 6.694 6.694 0 0 1-3.209 3.914 6.346 6.346 0 0 1-3.142.721 7.727 7.727 0 0 1-1.975-.258 6.36 6.36 0 0 1-1.872-.841 8.249 8.249 0 0 1-2.627-2.85 8.716 8.716 0 0 1-1.082-4.464 8.31 8.31 0 0 1 .6-3.091 9.726 9.726 0 0 1 1.6-2.7 8.218 8.218 0 0 1 2.335-1.923 5.807 5.807 0 0 1 2.85-.738 5.289 5.289 0 0 1 2.713.721 7.385 7.385 0 0 1 2.129 1.872 9.052 9.052 0 0 1 1.391 2.558 8.323 8.323 0 0 1 .5 2.782.151.151 0 0 1-.172.172h-10.72v.343a18.674 18.674 0 0 0 .549 5.323 3.294 3.294 0 0 0 1.425 1.94 4.62 4.62 0 0 0 2.352.567 6.037 6.037 0 0 0 2.37-.464 5.594 5.594 0 0 0 1.889-1.288 6.535 6.535 0 0 0 1.271-1.923 6.846 6.846 0 0 0 .549-2.4.315.315 0 0 1 .1-.258.326.326 0 0 1 .206-.086c.206 0 .309.115.309.343zm-3.434-3.194a19.9 19.9 0 0 0-.206-3.142 6.085 6.085 0 0 0-.635-2.009 2.489 2.489 0 0 0-1.082-1.065 3.493 3.493 0 0 0-1.511-.309 4.373 4.373 0 0 0-1.751.326 3.088 3.088 0 0 0-1.3 1.116 5.8 5.8 0 0 0-.824 2.164 18.11 18.11 0 0 0-.275 3.469h7.04a.485.485 0 0 0 .544-.55z" class="cls-1" transform="translate(-561.701 -414.249)"/>
        </g>
        <g id="Group_208" transform="translate(298.844 258.213)">
            <path id="Path_1663" d="M976.526 395.48c0 .184-.1.275-.309.275h-.069q-1.1 0-2.06-.051t-2.095-.052q-1 0-1.923.052t-1.82.051h-.034c-.228 0-.343-.091-.343-.275s.115-.275.343-.275l1.923-.1c.251 0 .378-.137.378-.412V382.6a2.852 2.852 0 0 0-.618-1.923 2.181 2.181 0 0 0-1.751-.721 3.735 3.735 0 0 0-2.971 1.46 6.113 6.113 0 0 0-1.219 4.035v9.238a.364.364 0 0 0 .412.412l2.129.1c.228 0 .343.091.343.275s-.1.275-.309.275h-.033c-.6 0-1.241-.017-1.94-.051s-1.381-.052-2.043-.052q-1.133 0-2.095.052t-2.06.051h-.034c-.206 0-.309-.091-.309-.275s.115-.275.344-.275l2.3-.1c.252 0 .378-.137.378-.412V372.4a.676.676 0 0 0-.206-.549.724.724 0 0 0-.481-.172l-2.541-.034c-.206 0-.309-.091-.309-.275s.115-.275.343-.275q1.03 0 2.078-.017t1.889-.052c.561-.022 1.023-.039 1.391-.052s.572-.017.618-.017a.122.122 0 0 1 .137.137v11.436c0 .046.01.069.034.069s.046-.022.069-.069a4.767 4.767 0 0 1 1.648-2.37 4.187 4.187 0 0 1 2.61-.893 5.782 5.782 0 0 1 2.078.361 4.749 4.749 0 0 1 1.648 1.047 4.666 4.666 0 0 1 1.082 1.648 5.961 5.961 0 0 1 .378 2.2v10.167c0 .275.125.412.378.412l2.3.1c.227.004.341.098.341.278z" class="cls-1" transform="translate(-957.5 -370.96)"/>
            <path id="Path_1664" d="M1093.166 427.843a7.788 7.788 0 0 1-.447 2.558 9.232 9.232 0 0 1-1.271 2.421 10.11 10.11 0 0 1-1.769 1.8 8.376 8.376 0 0 1-2.181 1.288 6.439 6.439 0 0 1-4.533 0 8.635 8.635 0 0 1-2.2-1.288 9.889 9.889 0 0 1-1.786-1.8 8.883 8.883 0 0 1-1.254-2.421 7.84 7.84 0 0 1 0-5.117 8.884 8.884 0 0 1 1.254-2.421 9.89 9.89 0 0 1 1.786-1.8 8.636 8.636 0 0 1 2.2-1.288 6.439 6.439 0 0 1 4.533 0 8.377 8.377 0 0 1 2.181 1.288 10.11 10.11 0 0 1 1.769 1.8 9.237 9.237 0 0 1 1.271 2.421 7.788 7.788 0 0 1 .447 2.559zm-3.228 0q0-1-.086-2.146a14.178 14.178 0 0 0-.257-1.94 7.249 7.249 0 0 0-.79-2.061 3.405 3.405 0 0 0-1.649-1.442 4.826 4.826 0 0 0-1.923-.343 4.93 4.93 0 0 0-1.958.343 3.319 3.319 0 0 0-1.631 1.442 7.522 7.522 0 0 0-.773 2.061 16.013 16.013 0 0 0-.275 1.94q-.1 1.151-.1 2.146a16.912 16.912 0 0 0 .378 3.709 10.866 10.866 0 0 0 .773 2.249 3.152 3.152 0 0 0 1.631 1.631 3.649 3.649 0 0 0 .893.24 7.476 7.476 0 0 0 1.064.069 7.112 7.112 0 0 0 1.047-.069 3.655 3.655 0 0 0 .876-.24 3.226 3.226 0 0 0 1.648-1.631 10.367 10.367 0 0 0 .79-2.249 14.016 14.016 0 0 0 .258-1.751q.083-.962.084-1.958z" class="cls-1" transform="translate(-1056.729 -411.049)"/>
            <path id="Path_1665" d="M1207.376 435.569c0 .184-.1.275-.309.275h-.034q-1.1 0-2.232-.051t-2.266-.052q-1 0-2.078.052t-1.975.051h-.034c-.206 0-.309-.091-.309-.275s.115-.275.344-.275l2.2-.1c.251 0 .378-.149.378-.446v-12.057a2.659 2.659 0 0 0-.67-2.009 2.368 2.368 0 0 0-1.7-.635 3.672 3.672 0 0 0-1.786.429 3.861 3.861 0 0 0-1.322 1.185 5.58 5.58 0 0 0-.807 1.751 7.953 7.953 0 0 0-.275 2.129v9.238a.364.364 0 0 0 .412.412l2.164.1c.251 0 .378.091.378.275s-.1.275-.309.275h-.069q-1.1 0-2.009-.052t-2.043-.052q-1 0-2.078.052t-1.974.052h-.034c-.206 0-.309-.091-.309-.275s.115-.275.344-.275l2.163-.1c.275 0 .412-.149.412-.446v-12.054a2.777 2.777 0 0 0-.635-1.958 2.244 2.244 0 0 0-1.734-.687 3.734 3.734 0 0 0-2.97 1.46 6.113 6.113 0 0 0-1.219 4.035v9.238a.575.575 0 0 0 .069.292c.046.081.149.12.309.12l2.2.1c.228 0 .344.091.344.275s-.1.275-.309.275h-.034q-.894 0-1.957-.052t-2.061-.052q-1.133 0-2.3.052t-2.266.052h-.034c-.16 0-.24-.091-.24-.275a.242.242 0 0 1 .275-.275l2.679-.1a.364.364 0 0 0 .412-.412v-13.5a1.026 1.026 0 0 0-.206-.687.913.913 0 0 0-.721-.24h-2.095c-.228 0-.343-.091-.343-.275s.115-.275.343-.275q1.682 0 2.679-.017t1.563-.052c.378-.022.64-.039.79-.052s.28-.017.395-.017a.455.455 0 0 1 .515.515v2.438c0 .046.012.069.034.069s.046-.022.069-.069a4.767 4.767 0 0 1 1.648-2.37 4.186 4.186 0 0 1 2.61-.893 5.379 5.379 0 0 1 3.28.927 4.773 4.773 0 0 1 1.734 2.335c.046.115.091.115.137 0a4.614 4.614 0 0 1 1.717-2.37 4.429 4.429 0 0 1 2.644-.893 4.96 4.96 0 0 1 3.743 1.46 5.235 5.235 0 0 1 1.408 3.795v10.172a.364.364 0 0 0 .412.412l2.61.1c.217.003.332.096.332.277z" class="cls-1" transform="translate(-1140.718 -411.049)"/>
            <path id="Path_1666" d="M1368.952 429.828a6.927 6.927 0 0 1-.344 1.957 6.79 6.79 0 0 1-1.133 2.164 6.693 6.693 0 0 1-2.078 1.751 6.346 6.346 0 0 1-3.142.721 7.726 7.726 0 0 1-1.975-.258 6.359 6.359 0 0 1-1.872-.841 8.25 8.25 0 0 1-2.627-2.85 8.716 8.716 0 0 1-1.082-4.464 8.31 8.31 0 0 1 .6-3.091 9.729 9.729 0 0 1 1.6-2.7 8.217 8.217 0 0 1 2.335-1.923 5.807 5.807 0 0 1 2.85-.738 5.288 5.288 0 0 1 2.713.721 7.382 7.382 0 0 1 2.129 1.872 9.052 9.052 0 0 1 1.391 2.558 8.324 8.324 0 0 1 .5 2.782.151.151 0 0 1-.172.172h-10.715v.343a18.672 18.672 0 0 0 .549 5.323 3.294 3.294 0 0 0 1.425 1.94 4.62 4.62 0 0 0 2.352.567 6.038 6.038 0 0 0 2.37-.464 5.6 5.6 0 0 0 1.889-1.288 6.538 6.538 0 0 0 1.271-1.923 6.844 6.844 0 0 0 .549-2.4.315.315 0 0 1 .1-.258.326.326 0 0 1 .206-.086c.206 0 .309.115.309.343zm-3.434-3.194a19.91 19.91 0 0 0-.206-3.142 6.082 6.082 0 0 0-.635-2.009 2.488 2.488 0 0 0-1.082-1.065 3.5 3.5 0 0 0-1.511-.309 4.371 4.371 0 0 0-1.751.326 3.088 3.088 0 0 0-1.3 1.116 5.8 5.8 0 0 0-.824 2.164 18.121 18.121 0 0 0-.275 3.469h7.04a.485.485 0 0 0 .544-.55z" class="cls-1" transform="translate(-1286.496 -411.215)"/>
        </g>
        <g id="Group_209" transform="translate(237.666 234.84)">
            <path id="Path_1667" d="M601.21 264.563l43.022-29.227 7.6 5.086.029-5.553 7.248-.029.058 10.668 28.614 19.173-43.549-21.833z" class="cls-2" transform="translate(-601.21 -234.84)"/>
            <path id="Path_1668" d="M786.716 356.4a16.786 16.786 0 0 0-.733-4.439 18.05 18.05 0 0 0-5.042-7.761 18.819 18.819 0 0 0-7.892-3.857 16.891 16.891 0 0 0-9.339.745 17.458 17.458 0 0 0-7.145 5 17.977 17.977 0 0 0-3.771 7.629 19.039 19.039 0 0 0 1.053 10.258 15.849 15.849 0 0 0 7.1 8.112 14.087 14.087 0 0 0 7.8 1.928 1.165 1.165 0 0 0 1.207-1.235 1.122 1.122 0 0 0-1.109-.793 17.246 17.246 0 0 1-5.557-1.248 14.325 14.325 0 0 1-3.858-2.478 11.96 11.96 0 0 1-3.134-3.979 16.82 16.82 0 0 1-.955-2.423 17.021 17.021 0 0 1-.635-3.014 16.735 16.735 0 0 1 0-2.869 17.07 17.07 0 0 1 .44-2.655 14 14 0 0 1 3.048-5.864 14.543 14.543 0 0 1 4.789-3.759 13.115 13.115 0 0 1 5.491-1.523 14.392 14.392 0 0 1 6.456.943 15.569 15.569 0 0 1 6.1 4.307c.3.367.611.769.92 1.205.283.4.537.788.768 1.163.247.477.495.992.735 1.545.187.434.354.855.5 1.26a10.67 10.67 0 0 1 .46 1.71 10.533 10.533 0 0 1 .165 1.468 12.014 12.014 0 0 1-.088 3.3 6.261 6.261 0 0 1-1.908 3.793 9.822 9.822 0 0 1-5.117 2.006 26.689 26.689 0 0 1-3.6.208 3.384 3.384 0 0 1-.22-1.963q.232-1.079.46-2.158a3.443 3.443 0 0 0 .405-.58 3.529 3.529 0 0 0 .242-.527 14.691 14.691 0 0 1 .8-2.564c.077-.189.158-.371.24-.548q.445-.8.888-1.59a4.355 4.355 0 0 0 .132-2.335 14.251 14.251 0 0 0-1.448-3.046l-.076-.6c-.034-.072-.089-.18-.165-.307a7.7 7.7 0 0 1-.45-.668 1.078 1.078 0 0 1-.055-.592 4.073 4.073 0 0 1 .22-.405c.3-.471.532-.61.68-1.008a1.689 1.689 0 0 0 .088-.362l-.44-.57-.192-.979a9.23 9.23 0 0 0-1.01.045 3.577 3.577 0 0 1-.561.024 2.922 2.922 0 0 1-.577-.082l-1.769.13a3.438 3.438 0 0 0-.472-.278 3.367 3.367 0 0 0-.536-.2 2.727 2.727 0 0 1 .158.591 2.675 2.675 0 0 1 .005.731 4.08 4.08 0 0 1-.658-.143 4.281 4.281 0 0 1-1.319-.668 3.477 3.477 0 0 0 0 .888 3.4 3.4 0 0 0 .2.778 4.314 4.314 0 0 1 .424.592 4.222 4.222 0 0 1 .263.519c.084.488.155 1.022.2 1.6.038.479.052.932.052 1.355l-1.082.556a8.865 8.865 0 0 0-1.873.927 9.8 9.8 0 0 0-4.4 6.042v2.105c0 1.485.014 2.96.029 4.428a3.409 3.409 0 0 0 .081.762 3.357 3.357 0 0 0 .271.771 2.648 2.648 0 0 0 .594.819 2.686 2.686 0 0 0 .735.482l10.741.13a19.169 19.169 0 0 0 7.234-1.315 7.089 7.089 0 0 0 4.439-4.669 16.811 16.811 0 0 0 .573-4.801zm-16.735 8.495l.012-.206c0-.006.015-.254.017-.263a2.29 2.29 0 0 0 .438-.337 2.365 2.365 0 0 0 .336-.409 3.167 3.167 0 0 0 .292-.584 3.11 3.11 0 0 0 .16-.615 5.763 5.763 0 0 1 .527 1.4 5.861 5.861 0 0 1 .146 1.053z" class="cls-2" transform="translate(-726.533 -321.945)"/>
        </g>
    </g>
</svg>
